<svg xmlns="http://www.w3.org/2000/svg" viewBox="0 0 512 512" width="512" height="512" role="img" aria-label="NyankoFace orange paw mark">
  <defs>
    <linearGradient id="paw-bg" x1="0" y1="0" x2="1" y2="1">
      <stop offset="0" stop-color="#ffb31a"/>
      <stop offset="1" stop-color="#f47d08"/>
    </linearGradient>
  </defs>
  <rect width="512" height="512" rx="96" fill="url(#paw-bg)"/>
  <path d="M256 54 456 169v174L256 458 56 343V169Z" fill="none" stroke="#fff" stroke-width="28" stroke-linejoin="round"/>
  <g fill="#fff">
    <ellipse cx="185" cy="229" rx="23" ry="36" transform="rotate(-26 185 229)"/>
    <ellipse cx="222" cy="188" rx="22" ry="36" transform="rotate(-8 222 188)"/>
    <ellipse cx="290" cy="188" rx="22" ry="36" transform="rotate(8 290 188)"/>
    <ellipse cx="327" cy="229" rx="23" ry="36" transform="rotate(26 327 229)"/>
    <path d="M181 343c0-48 32-86 75-86s75 38 75 86c0 31-31 53-75 53s-75-22-75-53Z"/>
  </g>
</svg>
