<svg xmlns="http://www.w3.org/2000/svg" viewBox="0 0 128 128"><path fill="#000" d="M28 26H30V27H28ZM99 26H100V27H99ZM28 27H32V28H28ZM97 27H100V28H97ZM28 28H33V29H28ZM95 28H100V29H95ZM28 29H35V30H28ZM93 29H100V30H93ZM28 30H37V31H28ZM91 30H100V31H91ZM28 31H39V32H28ZM89 31H100V32H89ZM28 32H40V33H28ZM88 32H100V33H88ZM28 33H42V34H28ZM86 33H100V34H86ZM28 34H43V35H28ZM85 34H100V35H85ZM28 35H44V36H28ZM84 35H100V36H84ZM28 36H46V37H28ZM82 36H100V37H82ZM28 37H47V38H28ZM81 37H100V38H81ZM28 38H48V39H28ZM80 38H100V39H80ZM28 39H50V40H28ZM78 39H100V40H78ZM28 40H51V41H28ZM59 40H69V41H59ZM77 40H100V41H77ZM28 41H52V42H28ZM55 41H73V42H55ZM76 41H100V42H76ZM28 42H100V43H28ZM28 43H100V44H28ZM28 44H100V45H28ZM28 45H43V46H28ZM51 45H77V46H51ZM85 45H100V46H85ZM28 46H40V47H28ZM54 46H74V47H54ZM88 46H100V47H88ZM28 47H38V48H28ZM57 47H71V48H57ZM90 47H100V48H90ZM28 48H37V49H28ZM58 48H70V49H58ZM91 48H100V49H91ZM28 49H35V50H28ZM60 49H69V50H60ZM93 49H100V50H93ZM28 50H34V51H28ZM61 50H67V51H61ZM94 50H100V51H94ZM28 51H34V52H28ZM62 51H66V52H62ZM95 51H100V52H95ZM28 52H33V53H28ZM63 52H66V53H63ZM95 52H100V53H95ZM28 53H32V54H28ZM63 53H65V54H63ZM96 53H100V54H96ZM28 54H32V55H28ZM96 54H100V55H96ZM28 55H31V56H28ZM97 55H100V56H97ZM28 56H31V57H28ZM97 56H100V57H97ZM28 57H30V58H28ZM98 57H100V58H98ZM28 58H30V59H28ZM98 58H100V59H98ZM28 59H30V60H28ZM98 59H100V60H98ZM28 60H30V61H28ZM37 60H46V61H37ZM82 60H91V61H82ZM98 60H100V61H98ZM28 61H30V62H28ZM37 61H45V62H37ZM83 61H91V62H83ZM98 61H100V62H98ZM28 62H30V63H28ZM37 62H45V63H37ZM51 62H53V63H51ZM75 62H77V63H75ZM83 62H91V63H83ZM98 62H100V63H98ZM28 63H30V64H28ZM37 63H45V64H37ZM51 63H54V64H51ZM74 63H77V64H74ZM83 63H91V64H83ZM98 63H100V64H98ZM28 64H30V65H28ZM38 64H44V65H38ZM51 64H55V65H51ZM73 64H77V65H73ZM84 64H91V65H84ZM98 64H100V65H98ZM28 65H31V66H28ZM38 65H44V66H38ZM51 65H55V66H51ZM73 65H77V66H73ZM84 65H90V66H84ZM98 65H100V66H98ZM28 66H31V67H28ZM38 66H45V67H38ZM51 66H56V67H51ZM72 66H77V67H72ZM83 66H90V67H83ZM97 66H100V67H97ZM28 67H31V68H28ZM39 67H45V68H39ZM51 67H56V68H51ZM72 67H77V68H72ZM83 67H89V68H83ZM97 67H100V68H97ZM30 68H32V69H30ZM39 68H45V69H39ZM51 68H57V69H51ZM71 68H77V69H71ZM83 68H89V69H83ZM96 68H98V69H96ZM40 69H45V70H40ZM50 69H57V70H50ZM71 69H78V70H71ZM83 69H88V70H83ZM41 70H46V71H41ZM50 70H57V71H50ZM71 70H78V71H71ZM82 70H87V71H82ZM20 71H24V72H20ZM42 71H46V72H42ZM50 71H57V72H50ZM71 71H78V72H71ZM82 71H86V72H82ZM104 71H108V72H104ZM20 72H29V73H20ZM44 72H46V73H44ZM49 72H57V73H49ZM71 72H79V73H71ZM82 72H84V73H82ZM99 72H108V73H99ZM20 73H32V74H20ZM49 73H55V74H49ZM73 73H79V74H73ZM96 73H108V74H96ZM21 74H35V75H21ZM93 74H107V75H93ZM21 75H37V76H21ZM91 75H107V76H91ZM28 76H39V77H28ZM89 76H100V77H89ZM34 77H40V78H34ZM88 77H94V78H88ZM38 78H42V79H38ZM86 78H90V79H86ZM40 79H43V80H40ZM59 79H69V80H59ZM85 79H88V80H85ZM59 80H69V81H59ZM23 81H35V82H23ZM59 81H69V82H59ZM93 81H105V82H93ZM24 82H39V83H24ZM61 82H67V83H61ZM89 82H104V83H89ZM24 83H41V84H24ZM62 83H66V84H62ZM87 83H104V84H87ZM25 84H43V85H25ZM62 84H66V85H62ZM85 84H103V85H85ZM26 85H45V86H26ZM63 85H65V86H63ZM83 85H103V86H83ZM26 86H30V87H26ZM41 86H46V87H41ZM82 86H87V87H82ZM98 86H102V87H98ZM45 87H47V88H45ZM81 87H83V88H81ZM63 88H65V89H63ZM62 89H66V90H62ZM61 90H67V91H61ZM59 91H69V92H59ZM50 92H52V93H50ZM56 92H72V93H56ZM76 92H78V93H76ZM51 93H77V94H51ZM52 94H63V95H52ZM65 94H76V95H65ZM53 95H62V96H53ZM66 95H75V96H66ZM55 96H60V97H55ZM68 96H73V97H68Z"/></svg>
